<?xml version="1.0" encoding="UTF-8"?>
<svg id="_图层_1" data-name="图层 1" xmlns="http://www.w3.org/2000/svg" viewBox="0 0 96 98.53">
  <defs>
    <style>
      .cls-1 {
        fill: none; /* 修改处：原为 #f5f5f5，现改为 none，实现背景透明 */
        stroke: #333;
        stroke-width: 6px;
      }

      .cls-2 {
        fill: #2196f3;
      }

      .cls-3 {
        isolation: isolate;
      }

      .cls-4 {
        fill: #333;
      }

      .cls-5 {
        fill: none;
        stroke: #2196f3;
        stroke-width: 2px;
      }
    </style>
  </defs>
  <rect class="cls-1" x="3" y="3" width="90" height="90" rx="20.46" ry="20.46"/>
  <g class="cls-3">
    <path class="cls-4" d="M25.36,34.38l4.46,1.42c-.68,2.49-1.82,4.34-3.41,5.54-1.59,1.21-3.61,1.81-6.06,1.81-3.03,0-5.52-1.03-7.47-3.1s-2.92-4.9-2.92-8.48c0-3.79.98-6.74,2.94-8.84,1.96-2.1,4.54-3.15,7.73-3.15,2.79,0,5.05.82,6.8,2.47,1.04.97,1.81,2.37,2.33,4.2l-4.56,1.09c-.27-1.18-.83-2.12-1.69-2.8-.85-.68-1.89-1.03-3.12-1.03-1.69,0-3.06.61-4.11,1.82-1.05,1.21-1.58,3.18-1.58,5.89,0,2.88.52,4.94,1.56,6.16,1.04,1.22,2.38,1.83,4.04,1.83,1.22,0,2.28-.39,3.16-1.17.88-.78,1.51-2,1.9-3.67Z"/>
    <path class="cls-4" d="M37.01,31.29l-3.97-.72c.45-1.6,1.21-2.78,2.3-3.55,1.09-.77,2.71-1.15,4.85-1.15,1.95,0,3.4.23,4.35.69s1.63,1.05,2.01,1.76c.39.71.58,2.01.58,3.91l-.05,5.1c0,1.45.07,2.52.21,3.21.14.69.4,1.43.79,2.22h-4.32c-.11-.29-.25-.72-.42-1.29-.07-.26-.12-.43-.16-.51-.75.73-1.54,1.27-2.4,1.63s-1.76.54-2.72.54c-1.7,0-3.04-.46-4.02-1.38s-1.47-2.09-1.47-3.5c0-.93.22-1.77.67-2.5.45-.73,1.07-1.29,1.87-1.68.8-.39,1.96-.73,3.48-1.02,2.04-.38,3.46-.74,4.25-1.07v-.44c0-.84-.21-1.44-.62-1.8-.42-.36-1.2-.54-2.35-.54-.78,0-1.38.15-1.82.46-.44.31-.79.84-1.06,1.61ZM42.86,34.83c-.56.19-1.45.41-2.66.67s-2.01.51-2.38.76c-.57.4-.86.92-.86,1.54s.23,1.14.68,1.59c.46.45,1.04.67,1.74.67.79,0,1.54-.26,2.25-.78.53-.39.88-.88,1.04-1.45.11-.37.17-1.08.17-2.13v-.87Z"/>
    <path class="cls-4" d="M51.33,26.25h4.07v2.43c.53-.83,1.24-1.5,2.15-2.02.9-.52,1.9-.78,3-.78,1.92,0,3.55.75,4.88,2.26,1.34,1.5,2.01,3.6,2.01,6.28s-.67,4.9-2.02,6.43c-1.35,1.53-2.98,2.29-4.9,2.29-.91,0-1.74-.18-2.48-.54s-1.52-.98-2.34-1.87v8.32h-4.37v-22.8ZM55.66,34.23c0,1.86.37,3.23,1.1,4.11.74.89,1.63,1.33,2.69,1.33s1.86-.41,2.53-1.22c.67-.81,1.01-2.15,1.01-4,0-1.73-.35-3.02-1.04-3.86-.7-.84-1.56-1.26-2.58-1.26s-1.95.41-2.66,1.24-1.06,2.05-1.06,3.66Z"/>
    <path class="cls-4" d="M69.37,38.05l4.39-.67c.19.85.57,1.5,1.14,1.94.57.44,1.37.66,2.39.66,1.13,0,1.98-.21,2.55-.62.38-.29.58-.68.58-1.17,0-.33-.1-.61-.31-.82-.22-.21-.71-.4-1.46-.58-3.53-.78-5.76-1.49-6.7-2.13-1.31-.89-1.96-2.13-1.96-3.72,0-1.43.56-2.63,1.69-3.61,1.13-.97,2.88-1.46,5.26-1.46s3.94.37,5.04,1.1c1.1.74,1.86,1.82,2.27,3.27l-4.12.76c-.18-.64-.51-1.14-1-1.48-.49-.34-1.2-.51-2.11-.51-1.15,0-1.98.16-2.47.48-.33.23-.5.52-.5.89,0,.31.15.58.44.79.39.29,1.75.7,4.08,1.23,2.33.53,3.95,1.18,4.88,1.94.91.78,1.37,1.86,1.37,3.25,0,1.51-.63,2.81-1.9,3.9-1.26,1.09-3.14,1.63-5.61,1.63-2.25,0-4.03-.46-5.34-1.37-1.31-.91-2.17-2.15-2.57-3.72Z"/>
  </g>
  <g class="cls-3">
    <path class="cls-2" d="M11.5,72.38v-13.73h10.18v2.32h-7.41v3.04h6.89v2.31h-6.89v3.74h7.67v2.31h-10.44Z"/>
    <path class="cls-2" d="M24.32,72.38v-13.73h2.7l5.62,9.17v-9.17h2.58v13.73h-2.78l-5.54-8.95v8.95h-2.58Z"/>
  </g>
  <path class="cls-5" d="M38.87,69.25l6.32-3.79M45.2,65.46l-6.32-3.79M59.11,69.25l-6.32-3.79M52.79,65.46l6.32-3.79"/>
  <g class="cls-3">
    <path class="cls-2" d="M75.95,58.23h8.26v11.75h-2.95v-1.17h-5.31v7.33h-2.97v-7.33h-5.29v1.29h-2.81v-11.87h8.1v-4.07h2.97v4.07ZM72.98,66.04v-5.06h-5.29v5.06h5.29ZM81.26,60.99h-5.31v5.06h5.31v-5.06Z"/>
  </g>
  <circle class="cls-4" cx="78.21" cy="17.17" r="2.38"/>
</svg>